<svg xmlns="http://www.w3.org/2000/svg" width="32" height="32" viewBox="0 0 32 32">
    <defs>
        <style>
            .cls-1{fill:none;opacity:.6}.cls-2{fill:#242424}
        </style>
    </defs>
    <g id="appstore_logo_b" transform="translate(-1149.027 573.817)">
        <path id="사각형_73" d="M0 0h32v32H0z" class="cls-1" data-name="사각형 73" transform="translate(1149.027 -573.817)"/>
        <path id="패스_9" d="M1172.683-449.093a6.9 6.9 0 0 1 3.29-5.794 7.075 7.075 0 0 0-5.571-3.011c-2.344-.247-4.617 1.4-5.811 1.4-1.218 0-3.056-1.378-5.038-1.338a7.417 7.417 0 0 0-6.243 3.807c-2.7 4.673-.687 11.54 1.9 15.317 1.294 1.851 2.806 3.915 4.785 3.843 1.936-.079 2.66-1.233 5-1.233 2.315 0 2.994 1.233 5.012 1.186 2.078-.032 3.386-1.858 4.635-3.725a15.276 15.276 0 0 0 2.12-4.316 6.68 6.68 0 0 1-4.075-6.139z" class="cls-2" data-name="패스 9" transform="translate(0 -108.208)"/>
        <path id="패스_10" d="M1347.759-567.059a6.818 6.818 0 0 0 1.561-4.887 6.949 6.949 0 0 0-4.492 2.323 6.488 6.488 0 0 0-1.6 4.706 5.739 5.739 0 0 0 4.533-2.143z" class="cls-2" data-name="패스 10" transform="translate(-178.834 -1.54)"/>
    </g>
</svg>
