<svg xmlns="http://www.w3.org/2000/svg" width="30" height="30" viewBox="0 0 30 30">
    <defs>
        <style>
            .cls-1{fill:#fff}.cls-2{fill:#666}
        </style>
    </defs>
    <g id="blog_btn" transform="translate(-1110 -3)">
        <circle id="타원_20" cx="15" cy="15" r="15" class="cls-1" data-name="타원 20" transform="translate(1110 3)"/>
        <g id="그룹_11" data-name="그룹 11" transform="translate(1070.498 -282.49)">
            <g id="그룹_8" data-name="그룹 8" transform="translate(46.858 294.947)">
                <path id="패스_23" d="M62.858 303.51a2.533 2.533 0 0 1-2.527 2.539H49.385a2.533 2.533 0 0 1-2.527-2.539v-6.024a2.533 2.533 0 0 1 2.527-2.539h10.946a2.533 2.533 0 0 1 2.527 2.539z" class="cls-2" data-name="패스 23" transform="translate(-46.858 -294.947)"/>
                <path id="패스_24" d="M87.32 358.783l-1.616-.1v-.042l-.339.021-.342-.021v.043l-1.616.1 1.544 2.513a.449.449 0 0 0 .041.059.428.428 0 0 0 .742 0 .3.3 0 0 0 .043-.062z" class="cls-2" data-name="패스 24" transform="translate(-77.364 -348.111)"/>
            </g>
            <g id="그룹_9" data-name="그룹 9" transform="translate(48.588 298.11)">
                <path id="패스_25" d="M59.209 315.746a1.293 1.293 0 0 0-.828.383v-1.544h-.974v4.056h.984v-.318a.933.933 0 0 0 .818.419 1.434 1.434 0 0 0 1.372-1.514s-.05-1.482-1.372-1.482zm-.215 2.14a.626.626 0 1 1 .625-.626.626.626 0 0 1-.624.626z" class="cls-1" data-name="패스 25" transform="translate(-57.408 -314.494)"/>
                <path id="패스_26" d="M78.665 314.032v.938s.444-.02.444.807v2.4h.938v-2.623s.041-1.522-1.382-1.522z" class="cls-1" data-name="패스 26" transform="translate(-75.148 -314.032)"/>
                <path id="패스_27" d="M92.885 321.739s-1.608 0-1.608 1.5a1.454 1.454 0 0 0 1.608 1.482s1.646 0 1.646-1.482a1.478 1.478 0 0 0-1.646-1.5zm0 2.128a.626.626 0 1 1 .625-.626.626.626 0 0 1-.625.626z" class="cls-1" data-name="패스 27" transform="translate(-85.662 -320.475)"/>
                <path id="패스_28" d="M116.312 321.836v.272a1.065 1.065 0 0 0-.817-.37 1.343 1.343 0 0 0-1.377 1.492s-.015 1.444 1.339 1.444a1.113 1.113 0 0 0 .855-.371v.227a.619.619 0 0 1-.62.711h-.235v.862h.378a1.413 1.413 0 0 0 1.423-1.521v-2.747zm-.582 2.03a.626.626 0 1 1 .625-.626.626.626 0 0 1-.625.625z" class="cls-1" data-name="패스 28" transform="translate(-104.719 -320.474)"/>
            </g>
        </g>
    </g>
</svg>
