<svg xmlns="http://www.w3.org/2000/svg" width="30" height="30" viewBox="0 0 30 30">
    <defs>
        <style>
            .cls-1{fill:#fff}.cls-2{fill:#666}
        </style>
    </defs>
    <g id="instagram_btn" transform="translate(-1030 -3)">
        <circle id="타원_22" cx="15" cy="15" r="15" class="cls-1" data-name="타원 22" transform="translate(1030 3)"/>
        <g id="그룹_7" data-name="그룹 7" transform="translate(1035 8)">
            <path id="패스_20" d="M10 2.622c2.4 0 2.688.009 3.637.052a4.975 4.975 0 0 1 1.671.31 2.784 2.784 0 0 1 1.035.673 2.784 2.784 0 0 1 .673 1.035 4.975 4.975 0 0 1 .31 1.671c.043.949.052 1.234.052 3.637s-.009 2.688-.052 3.637a4.975 4.975 0 0 1-.31 1.671 2.981 2.981 0 0 1-1.708 1.708 4.975 4.975 0 0 1-1.671.31c-.949.043-1.234.052-3.637.052s-2.688-.009-3.637-.052a4.975 4.975 0 0 1-1.671-.31 2.784 2.784 0 0 1-1.035-.673 2.784 2.784 0 0 1-.673-1.035 4.975 4.975 0 0 1-.31-1.671c-.043-.949-.052-1.237-.052-3.637s.009-2.688.052-3.637a4.975 4.975 0 0 1 .31-1.671 2.784 2.784 0 0 1 .673-1.035 2.784 2.784 0 0 1 1.035-.673 4.975 4.975 0 0 1 1.671-.31C7.312 2.631 7.6 2.622 10 2.622M10 1c-2.444 0-2.751.01-3.711.054a6.6 6.6 0 0 0-2.189.418 4.415 4.415 0 0 0-1.589 1.039A4.415 4.415 0 0 0 1.472 4.1a6.6 6.6 0 0 0-.418 2.185C1.01 7.249 1 7.556 1 10s.01 2.751.054 3.711a6.6 6.6 0 0 0 .418 2.189 4.414 4.414 0 0 0 1.038 1.594 4.414 4.414 0 0 0 1.59 1.034 6.6 6.6 0 0 0 2.185.418C7.249 18.99 7.556 19 10 19s2.751-.01 3.711-.054a6.6 6.6 0 0 0 2.185-.418 4.6 4.6 0 0 0 2.632-2.628 6.6 6.6 0 0 0 .418-2.185C18.99 12.751 19 12.444 19 10s-.01-2.751-.054-3.711a6.6 6.6 0 0 0-.418-2.189 4.414 4.414 0 0 0-1.038-1.594 4.414 4.414 0 0 0-1.59-1.034 6.6 6.6 0 0 0-2.185-.418C12.751 1.01 12.444 1 10 1z" class="cls-2" data-name="패스 20"/>
            <path id="패스_21" d="M20.711 16.081a4.63 4.63 0 1 0 4.63 4.63 4.63 4.63 0 0 0-4.63-4.63zm0 7.635a3.005 3.005 0 1 1 3.005-3.005 3.005 3.005 0 0 1-3.005 3.005z" class="cls-2" data-name="패스 21" transform="translate(-10.711 -10.711)"/>
            <circle id="타원_24" cx="1.078" cy="1.078" r="1.078" class="cls-2" data-name="타원 24" transform="translate(13.727 4.117)"/>
        </g>
    </g>
</svg>
